<?xml version="1.0" encoding="UTF-8" standalone="no"?>
<!-- Created with Inkscape (http://www.inkscape.org/) -->

<svg
   xmlns:dc="http://purl.org/dc/elements/1.1/"
   xmlns:cc="http://creativecommons.org/ns#"
   xmlns:rdf="http://www.w3.org/1999/02/22-rdf-syntax-ns#"
   xmlns:svg="http://www.w3.org/2000/svg"
   xmlns="http://www.w3.org/2000/svg"
   xmlns:sodipodi="http://sodipodi.sourceforge.net/DTD/sodipodi-0.dtd"
   xmlns:inkscape="http://www.inkscape.org/namespaces/inkscape"
   width="293.36969mm"
   height="87.319084mm"
   viewBox="0 0 1039.4989 309.39833"
   id="svg2"
   version="1.1"
   inkscape:version="0.91 r13725"
   sodipodi:docname="logo.svg">
  <defs
     id="defs4" />
  <sodipodi:namedview
     id="base"
     pagecolor="#ffffff"
     bordercolor="#666666"
     borderopacity="1.0"
     inkscape:pageopacity="0.0"
     inkscape:pageshadow="2"
     inkscape:zoom="0.49497475"
     inkscape:cx="124.84197"
     inkscape:cy="-120.17826"
     inkscape:document-units="px"
     inkscape:current-layer="text3340"
     showgrid="false"
     fit-margin-top="0"
     fit-margin-left="0"
     fit-margin-right="0"
     fit-margin-bottom="0"
     inkscape:window-width="1600"
     inkscape:window-height="851"
     inkscape:window-x="0"
     inkscape:window-y="25"
     inkscape:window-maximized="1" />
  <metadata
     id="metadata7">
    <rdf:RDF>
      <cc:Work
         rdf:about="">
        <dc:format>image/svg+xml</dc:format>
        <dc:type
           rdf:resource="http://purl.org/dc/dcmitype/StillImage" />
        <dc:title />
      </cc:Work>
    </rdf:RDF>
  </metadata>
  <g
     inkscape:label="Layer 1"
     inkscape:groupmode="layer"
     id="layer1"
     transform="translate(-207.12652,-146.30117)">
    <text
       xml:space="preserve"
       style="font-style:normal;font-variant:normal;font-weight:normal;font-stretch:normal;font-size:70px;line-height:125%;font-family:Monda;-inkscape-font-specification:Monda;letter-spacing:0px;word-spacing:0px;fill:#000000;fill-opacity:1;stroke:none;stroke-width:1px;stroke-linecap:butt;stroke-linejoin:miter;stroke-opacity:1"
       x="325.71429"
       y="389.50507"
       id="text3336"
       sodipodi:linespacing="125%"><tspan
         sodipodi:role="line"
         id="tspan3338"
         x="325.71429"
         y="389.50507"
         style="font-style:normal;font-variant:normal;font-weight:normal;font-stretch:normal;font-size:70px;font-family:Monda;-inkscape-font-specification:Monda" /></text>
    <g
       style="font-style:normal;font-weight:normal;font-size:146.98930359px;line-height:94.99999881%;font-family:Sans;letter-spacing:0px;word-spacing:0px;fill:#000000;fill-opacity:1;stroke:none;stroke-width:1px;stroke-linecap:butt;stroke-linejoin:miter;stroke-opacity:1"
       id="text3340">
      <path
         d="m 461.72551,281.12643 0,-105.93565 64.0925,0 0,16.29228 -42.77618,0 0,28.85239 39.83353,0 0,15.28746 -39.83353,0 0,45.50352 -21.31632,0 z"
         style="font-style:normal;font-variant:normal;font-weight:bold;font-stretch:normal;line-height:94.99999881%;font-family:MONDA;-inkscape-font-specification:'MONDA Bold'"
         id="path3459" />
      <path
         d="m 567.58939,246.74759 33.15872,0 -16.29227,-55.69517 -16.86645,55.69517 z m -32.65631,34.37884 34.88125,-105.93565 28.27821,0 35.31189,105.93565 -22.60822,0 -5.95709,-20.16796 -41.48428,0 -6.17241,20.16796 -22.24935,0 z"
         style="font-style:normal;font-variant:normal;font-weight:bold;font-stretch:normal;line-height:94.99999881%;font-family:MONDA;-inkscape-font-specification:'MONDA Bold'"
         id="path3461" />
      <path
         d="m 649.76846,281.12643 0,-15.93341 19.3067,0 0,-74.1406 -19.3067,0 0,-15.86164 59.71441,0 0,15.86164 -19.16316,0 0,74.1406 19.16316,0 0,15.93341 -59.71441,0 z"
         style="font-style:normal;font-variant:normal;font-weight:bold;font-stretch:normal;line-height:94.99999881%;font-family:Monda;-inkscape-font-specification:'Monda Bold'"
         id="path3463" />
      <path
         d="m 755.7759,224.0676 26.19682,0 q 7.53608,0 10.33519,-4.23456 2.87088,-4.30632 2.87088,-12.99075 0,-16.50759 -12.3448,-16.50759 l -27.05809,0 0,33.7329 z m -21.31632,57.05883 0,-105.93565 45.71884,0 q 20.52683,0 27.91935,8.32557 7.46431,8.32557 7.46431,22.60822 0,14.21088 -4.16279,20.74214 -4.09101,6.45949 -11.41176,9.33038 l 20.45505,44.92934 -22.10581,0 -18.58898,-41.84314 -23.97189,0 0,41.84314 -21.31632,0 z"
         style="font-style:normal;font-variant:normal;font-weight:bold;font-stretch:normal;line-height:94.99999881%;font-family:Monda;-inkscape-font-specification:'Monda Bold'"
         id="path3465" />
      <path
         d="m 867.81218,281.12643 -37.60859,-105.93565 22.82353,0 27.99113,85.62414 27.12986,-85.62414 22.82354,0 -37.32151,105.93565 -25.83796,0 z"
         style="font-style:normal;font-variant:normal;font-weight:bold;font-stretch:normal;line-height:94.99999881%;font-family:Monda;-inkscape-font-specification:'Monda Bold'"
         id="path3467" />
      <path
         d="m 945.18252,281.12643 0,-15.93341 19.3067,0 0,-74.1406 -19.3067,0 0,-15.86164 59.71438,0 0,15.86164 -19.16313,0 0,74.1406 19.16313,0 0,15.93341 -59.71438,0 z"
         style="font-style:normal;font-variant:normal;font-weight:bold;font-stretch:normal;line-height:94.99999881%;font-family:Monda;-inkscape-font-specification:'Monda Bold'"
         id="path3469" />
      <path
         d="m 1029.8736,281.12643 0,-105.93565 69.4037,0 0,16.07696 -48.1591,0 0,28.13467 42.7044,0 0,15.35923 -42.7044,0 0,30.28784 48.9486,0 0,16.07695 -70.1932,0 z"
         style="font-style:normal;font-variant:normal;font-weight:bold;font-stretch:normal;line-height:94.99999881%;font-family:Monda;-inkscape-font-specification:'Monda Bold'"
         id="path3471" />
      <path
         d="m 1139.6132,281.12643 -27.4887,-105.93565 20.6704,0 18.3018,73.27934 18.589,-73.27934 18.0148,0 21.2446,72.48985 17.2253,-72.48985 20.455,0 -27.4169,105.93565 -17.8713,0 -22.2493,-75.57604 -20.3833,75.57604 -19.0914,0 z"
         style="font-style:normal;font-variant:normal;font-weight:bold;font-stretch:normal;line-height:94.99999881%;font-family:Monda;-inkscape-font-specification:'Monda Bold'"
         id="path3473" />
      <path
         d="m 463.73513,420.76627 0,-103.78249 46.29302,0 q 21.45986,0 26.91454,16.2205 2.00962,6.02886 2.00962,14.35443 0.0718,8.25379 -1.86607,13.92379 -1.93785,5.59822 -5.02405,8.68443 -3.01443,3.01442 -7.67962,4.95227 l 22.03404,45.64707 -14.85683,0 -20.5986,-43.06327 -32.72808,0.0718 0,42.9915 -14.49797,0 z m 14.49797,-53.97263 30.57492,0 q 9.18683,0 12.41658,-4.95228 3.30151,-4.95228 3.30151,-13.99556 -0.0718,-16.2205 -8.54088,-19.09139 -2.44025,-0.86126 -5.52645,-0.78949 l -32.22568,0 0,38.82872 z"
         style="font-style:normal;font-variant:normal;font-weight:normal;font-stretch:normal;line-height:94.99999881%;font-family:MONDA;-inkscape-font-specification:MONDA"
         id="path3475" />
      <path
         d="m 609.21722,410.71817 q 14.21088,0 20.67037,-4.52164 6.45949,-4.59342 6.45949,-18.08657 l 0,-37.53682 q 0,-13.49316 -6.53126,-18.51721 -6.45949,-5.02405 -20.52683,-5.02405 -21.81872,0 -26.48391,12.05772 -1.7943,4.59341 -1.7943,11.48354 l 0,37.53682 q 0,13.42138 7.03366,18.0148 7.03367,4.59341 21.17278,4.59341 z m -26.55569,6.89013 q -9.40214,-4.73696 -12.77543,-12.70367 -3.37329,-7.9667 -3.37329,-19.01961 l 0,-32.65631 q 0,-22.32113 12.63189,-30.93379 10.19164,-6.89012 30.14429,-6.89012 35.31188,0 40.40771,26.26859 1.07658,5.52646 1.07658,12.48835 l 0,30.71847 q 0,21.67518 -12.41658,30.43138 -9.97632,7.03367 -28.13467,7.03367 -18.15835,0 -27.5605,-4.73696 z"
         style="font-style:normal;font-variant:normal;font-weight:normal;font-stretch:normal;line-height:94.99999881%;font-family:MONDA;-inkscape-font-specification:MONDA"
         id="path3477" />
      <path
         d="m 679.91276,420.76627 0,-103.78249 37.60859,0 q 24.11543,0 30.57492,10.69405 3.8757,6.38772 3.8757,17.79949 -0.35887,15.431 -13.06253,19.8091 8.89974,2.00962 13.49316,8.89974 4.59341,6.89013 4.59341,17.08177 0,15.43101 -8.68442,22.46467 -8.68443,7.03367 -27.63227,7.03367 l -40.76656,0 z m 14.49796,-10.69405 25.19202,0 q 12.20126,0 17.65594,-3.94746 5.52645,-3.94747 5.52645,-16.43582 0,-18.87607 -19.66556,-18.87607 l -28.70885,0 0,39.25935 z m 0,-49.09213 26.62746,0 q 9.2586,0 12.84721,-3.87569 3.66038,-3.87569 3.66038,-10.5505 0,-6.67481 -1.00481,-10.0481 -0.93304,-3.37329 -3.66038,-5.38291 -2.65557,-2.00962 -6.67481,-2.65557 -3.94746,-0.64595 -10.90936,-0.64595 l -20.88569,0 0,33.15872 z"
         style="font-style:normal;font-variant:normal;font-weight:normal;font-stretch:normal;line-height:94.99999881%;font-family:MONDA;-inkscape-font-specification:MONDA"
         id="path3479" />
      <path
         d="m 822.23689,410.71817 q 14.21088,0 20.67037,-4.52164 6.45949,-4.59342 6.45949,-18.08657 l 0,-37.53682 q 0,-13.49316 -6.53126,-18.51721 -6.45949,-5.02405 -20.52683,-5.02405 -21.81872,0 -26.48391,12.05772 -1.79431,4.59341 -1.79431,11.48354 l 0,37.53682 q 0,13.42138 7.03367,18.0148 7.03367,4.59341 21.17278,4.59341 z m -26.55569,6.89013 q -9.40214,-4.73696 -12.77543,-12.70367 -3.37329,-7.9667 -3.37329,-19.01961 l 0,-32.65631 q 0,-22.32113 12.63189,-30.93379 10.19164,-6.89012 30.14429,-6.89012 35.31188,0 40.4077,26.26859 1.07659,5.52646 1.07659,12.48835 l 0,30.71847 q 0,21.67518 -12.41658,30.43138 -9.97633,7.03367 -28.13467,7.03367 -18.15835,0 -27.5605,-4.73696 z"
         style="font-style:normal;font-variant:normal;font-weight:normal;font-stretch:normal;line-height:94.99999881%;font-family:MONDA;-inkscape-font-specification:MONDA"
         id="path3481" />
      <path
         d="m 913.2439,420.76627 0,-91.94009 -29.92897,0 0,-11.8424 74.35592,0 0,11.8424 -30.00075,0 0,91.94009 -14.4262,0 z"
         style="font-style:normal;font-variant:normal;font-weight:normal;font-stretch:normal;line-height:94.99999881%;font-family:MONDA;-inkscape-font-specification:MONDA"
         id="path3483" />
      <path
         d="m 977.33641,420.76627 0,-10.76582 19.80911,0 0,-82.32262 -19.80911,0 0,-10.69405 53.97259,0 0,10.69405 -19.7373,0 0,82.32262 19.7373,0 0,10.76582 -53.97259,0 z"
         style="font-style:normal;font-variant:normal;font-weight:normal;font-stretch:normal;line-height:94.99999881%;font-family:MONDA;-inkscape-font-specification:MONDA"
         id="path3485" />
      <path
         d="m 1073.2957,417.68007 q -9.115,-4.73696 -12.2012,-12.63189 -3.0862,-7.96671 -3.0862,-19.16316 l 0,-32.58454 q 0,-22.67999 11.7706,-30.93379 9.9763,-6.96189 28.9959,-6.96189 19.0914,0 27.7041,5.31113 8.6126,5.23937 10.7658,16.50759 1.0048,5.02405 1.0048,11.98595 l -13.7085,1.22012 q 0,-10.47873 -1.7943,-14.13911 -1.7943,-3.73215 -3.5886,-5.31113 -1.7225,-1.57899 -5.7418,-2.72734 -4.0192,-1.22013 -12.5601,-1.22013 -8.5409,0 -13.4214,1.14836 -4.8805,1.07658 -8.3255,3.73215 -6.6031,5.09582 -6.6031,18.73252 l 0,37.46505 q 0,13.49315 6.6748,18.08657 6.6748,4.52164 21.2446,4.52164 14.6415,0 18.6607,-3.44506 4.0193,-3.44506 4.9523,-10.04809 0.5024,-3.58861 0.5024,-8.61266 l 13.7085,0 q 0,15.64632 -4.5216,21.96227 -8.3256,11.77063 -31.6516,11.77063 -19.5937,0 -28.7806,-4.66519 z"
         style="font-style:normal;font-variant:normal;font-weight:normal;font-stretch:normal;line-height:94.99999881%;font-family:MONDA;-inkscape-font-specification:MONDA"
         id="path3487" />
      <path
         d="m 1232.9887,391.62679 q 0,30.71847 -33.9482,30.71847 -22.5364,0 -39.2593,-9.68924 l 5.0958,-11.05291 q 6.4595,3.80393 15.6463,6.4595 9.2586,2.65556 17.943,2.65556 8.7562,0 13.2061,-2.22493 7.9667,-4.01924 7.9667,-16.36405 0,-5.09582 -0.5024,-6.81835 -1.6507,-5.74177 -12.1295,-9.04328 l -25.0484,-8.32557 q -12.1295,-3.94747 -16.2205,-9.97632 -4.0193,-6.10064 -4.0193,-15.57456 0.072,-13.6367 9.9763,-20.81391 8.5409,-6.10063 24.8332,-6.1724 23.1824,0 34.8095,7.24898 l -3.5169,11.26822 q -12.7754,-6.89012 -28.7806,-6.89012 -11.1247,0 -16.9382,2.87089 -5.8135,2.87088 -6.2442,9.2586 -0.1435,2.00962 -0.1435,3.58861 0,5.16759 2.1531,7.9667 2.225,2.79911 8.5409,4.95228 l 26.1251,8.82797 q 10.7658,3.66038 15.5745,9.61746 4.8805,5.88532 4.8805,17.5124 z"
         style="font-style:normal;font-variant:normal;font-weight:normal;font-stretch:normal;line-height:94.99999881%;font-family:MONDA;-inkscape-font-specification:MONDA"
         id="path3489" />
    </g>
    <path
       style="fill:#000000"
       d="m 395.46587,454.5996 c -1.27559,-2.11993 -5.69649,-8.5682 -6.69265,-9.76184 -0.18963,-0.22711 -1.0221,-1.34074 -1.85011,-2.47469 -1.72207,-2.35846 -6.25113,-8.06568 -7.17366,-9.03984 -0.34055,-0.3596 -1.55938,-1.78256 -2.7085,-3.1621 -1.14912,-1.37956 -2.56283,-3.00324 -3.14159,-3.60816 -3.46156,-3.61818 -9.74826,-9.86353 -11.34829,-11.27368 -1.0296,-0.90738 -2.43381,-2.1529 -3.12044,-2.76778 -4.86399,-4.35573 -13.42333,-10.65197 -18.45726,-13.57715 -0.81893,-0.47589 -1.73645,-1.00939 -2.03892,-1.18557 -0.30246,-0.17609 -0.85926,-0.52253 -1.23734,-0.76967 -2.86148,-1.87041 -10.10316,-5.34178 -14.57328,-6.98583 -1.13424,-0.41719 -2.57075,-0.99244 -3.19225,-1.27838 -0.62148,-0.28593 -1.36388,-0.52409 -1.64978,-0.5292 -0.28592,-0.006 -1.01477,-0.24842 -1.61969,-0.54062 -0.60494,-0.29221 -1.44413,-0.53547 -1.86488,-0.54062 -0.42074,-0.006 -1.21384,-0.19687 -1.76245,-0.42609 -0.54862,-0.22924 -1.85611,-0.54998 -2.90554,-0.71281 -1.04943,-0.16274 -2.32491,-0.47023 -2.83441,-0.68312 -0.53427,-0.2232 -1.89021,-0.39118 -3.20364,-0.39683 -1.25253,-0.006 -3.01973,-0.19752 -3.92713,-0.42699 -1.09689,-0.27735 -3.67716,-0.4691 -7.69909,-0.57207 -5.05548,-0.12945 -6.32782,-0.0816 -7.74478,0.29105 -0.93254,0.24528 -2.66483,0.51585 -3.84955,0.60124 -1.1847,0.0853 -2.64898,0.32736 -3.2539,0.53762 -0.60492,0.21028 -2.08974,0.50388 -3.2996,0.65248 -1.20986,0.14861 -2.65977,0.46276 -3.22203,0.69819 -0.56227,0.23539 -1.30469,0.42622 -1.64982,0.42404 -0.34512,-0.004 -1.49364,0.25296 -2.55226,0.56699 -4.50617,1.33676 -5.55047,1.62706 -6.46174,1.7964 -0.5293,0.0983 -1.08612,0.27717 -1.23736,0.39745 -0.15112,0.12016 -1.07924,0.42633 -2.06224,0.68023 -0.98302,0.25389 -1.91103,0.5612 -2.06227,0.68293 -0.15112,0.12172 -0.9555,0.40564 -1.78728,0.63087 -0.83178,0.22522 -1.94539,0.56235 -2.47471,0.7492 -0.5293,0.18692 -1.58105,0.55232 -2.33721,0.81213 -0.75616,0.25986 -1.77699,0.61632 -2.2685,0.79216 -0.49149,0.17589 -1.29577,0.46027 -1.78728,0.63204 -0.49151,0.17183 -1.45046,0.52981 -2.131,0.7956 -0.68054,0.26577 -2.1035,0.79894 -3.16212,1.1848 -3.44646,1.25618 -5.49367,2.06505 -6.32928,2.50077 -0.45092,0.23513 -0.97124,0.42826 -1.15623,0.42921 -0.34893,0.004 -2.25491,0.8008 -3.92563,1.64575 -0.52932,0.26767 -1.35597,0.57205 -1.83703,0.67636 -0.48106,0.1043 -1.02208,0.36729 -1.20229,0.58441 -0.18015,0.21713 -0.51427,0.39478 -0.74238,0.39478 -0.37027,0 -4.1244,1.54549 -7.49196,3.08427 -0.68054,0.31098 -1.73229,0.79022 -2.33723,1.06499 -0.60492,0.27477 -2.298,1.06216 -3.76239,1.74974 -1.46443,0.68761 -2.79459,1.25015 -2.95591,1.25015 -0.65939,0 -0.14803,-1.28532 2.85175,-7.16815 1.72981,-3.39227 4.95964,-9.75608 7.17742,-14.14182 5.96402,-11.79411 10.37423,-20.32946 10.9187,-21.13161 0.26465,-0.38992 0.4812,-0.88221 0.4812,-1.09399 0,-0.21177 0.24746,-0.69964 0.54992,-1.08416 0.30246,-0.38453 0.54995,-0.86863 0.54995,-1.07579 0,-0.20714 0.21606,-0.68257 0.48017,-1.05649 0.26411,-0.37392 0.85531,-1.42226 1.31379,-2.32966 1.79876,-3.55992 4.12207,-5.89422 6.26702,-6.29663 1.08283,-0.20313 1.96414,-0.82061 2.46718,-1.72857 0.18325,-0.33062 0.74714,-1.30887 1.25326,-2.17394 0.89148,-1.52369 1.5301,-2.67995 3.55495,-6.43639 0.5299,-0.983 1.93604,-3.48364 3.12479,-5.55697 1.18877,-2.07331 2.16138,-3.84839 2.16138,-3.94457 0,-0.0962 0.23467,-0.50448 0.5215,-0.90729 0.28682,-0.40281 0.66779,-1.27567 0.8466,-1.9397 0.9956,-3.69738 2.96742,-6.04413 6.24717,-7.43499 1.08813,-0.46146 2.30269,-0.83901 2.69899,-0.83901 1.06108,0 1.71426,-0.4436 2.34161,-1.59026 0.30753,-0.56206 0.89567,-1.64152 1.30699,-2.3988 3.24486,-5.97385 4.14301,-13.02894 2.44277,-19.18797 -0.65473,-2.37169 -0.85365,-2.7214 -2.52168,-4.43347 -1.22121,-1.25346 -4.30054,-5.55403 -6.12038,-8.54771 -0.57393,-0.94407 -4.18899,-8.32043 -4.18899,-8.54734 0,-0.11862 -0.22415,-0.71855 -0.49809,-1.33341 -0.9948,-2.23284 -2.15257,-5.93745 -2.97032,-9.50445 -0.22537,-0.983 -0.58894,-2.31748 -0.80792,-2.96551 -0.21895,-0.64801 -0.40356,-1.76162 -0.41018,-2.47471 -0.008,-0.71305 -0.19459,-1.79142 -0.41763,-2.39634 -0.59838,-1.62287 -1.2136,-11.12 -1.20232,-18.56029 0.0116,-7.50293 0.58737,-16.73638 1.19212,-19.11024 0.23115,-0.9074 0.42471,-2.12985 0.43009,-2.71658 0.006,-0.58674 0.24855,-2.0097 0.54037,-3.16212 0.29186,-1.15245 0.65451,-2.65215 0.80597,-3.33269 1.70404,-7.65806 7.11089,-20.01671 11.24769,-25.70944 0.43959,-0.60494 0.96251,-1.40922 1.16204,-1.7873 0.77979,-1.47765 5.24414,-6.88921 8.25112,-10.00175 3.72561,-3.85644 9.12188,-8.4795 12.78406,-10.9523 l 1.10177,-0.74395 0.0757,13.39245 0.0757,13.39245 -1.87821,1.78728 c -3.39854,3.23402 -10.07309,9.49408 -11.33401,10.6302 -1.08142,0.97437 -1.33007,1.08313 -1.97307,0.86306 -1.77424,-0.60724 -4.30382,0.97797 -4.93792,3.09446 -0.84699,2.82699 1.95986,5.90751 4.88307,5.35912 0.52846,-0.0991 1.43364,-0.60738 2.01147,-1.12943 1.28788,-1.16351 1.73939,-2.62581 1.3204,-4.27644 l -0.28738,-1.13219 1.42006,-1.27379 c 0.78102,-0.70057 4.13478,-3.81035 7.45282,-6.9106 l 6.03279,-5.63683 0.0136,-14.36705 0.0135,-14.36703 -1.00951,0 -1.00954,0 1.21576,-0.78873 c 2.44491,-1.58612 4.39177,-2.78586 4.5207,-2.78586 0.0728,0 0.13197,3.99046 0.13158,8.8677 l -5.6e-4,8.86768 -1.64864,2.47472 -1.64864,2.47471 -5.4e-4,6.0525 -5.6e-4,6.05251 -4.39948,4.39303 -4.39947,4.39303 0,1.97014 0,1.97016 -10.31454,10.10912 c -5.673,5.56001 -10.65334,10.31479 -11.06745,10.5662 -0.48087,0.29194 -1.12211,0.41378 -1.77476,0.33722 -1.23774,-0.14513 -3.13693,0.71372 -3.89624,1.76207 -1.20193,1.65941 -0.7932,4.54599 0.81769,5.77468 1.95857,1.49387 4.80455,1.06668 6.16565,-0.92551 0.57562,-0.8425 0.67849,-1.29545 0.64702,-2.84854 l -0.0373,-1.84672 4.02445,-3.94648 c 2.21345,-2.17054 7.21062,-7.07002 11.10487,-10.88776 l 7.0804,-6.94131 0,-2.00373 0,-2.00373 4.39947,-4.35333 4.39948,-4.35334 0.002,-6.22265 0.002,-6.22265 1.78478,-2.6122 1.78479,-2.61219 0.002,-9.54145 c 7.3e-4,-8.45812 -0.0488,-9.56939 -0.43836,-9.78746 -0.33516,-0.1875 0.39973,-0.65314 3.09337,-1.95965 1.94315,-0.9425 3.99057,-1.95157 4.54984,-2.24236 0.55928,-0.29079 1.17796,-0.53259 1.37486,-0.53731 0.19687,-0.004 0.97663,-0.31295 1.73279,-0.68491 0.75616,-0.37197 1.54137,-0.67745 1.74487,-0.67882 0.20352,-0.002 0.69846,-0.17821 1.09987,-0.39308 0.78385,-0.41946 2.48882,-1.01068 5.12932,-1.77867 0.9074,-0.26391 1.92006,-0.6262 2.25041,-0.80511 0.32993,-0.17899 0.91311,-0.32526 1.29552,-0.32526 0.38243,0 1.28765,-0.23026 2.01161,-0.51169 0.72394,-0.28142 1.95868,-0.59406 2.74385,-0.69476 0.78518,-0.10062 1.84223,-0.35635 2.34905,-0.5681 0.50679,-0.21174 1.72041,-0.46583 2.6969,-0.56459 0.97652,-0.0989 2.20856,-0.3407 2.73788,-0.5376 0.5293,-0.19689 1.82851,-0.44227 2.88715,-0.54528 2.47876,-0.2412 2.80912,-0.006 3.1751,2.26921 0.15345,0.9539 0.4514,2.19125 0.66201,2.74967 0.21062,0.55842 0.45853,1.58119 0.55095,2.2728 0.27684,2.07199 1.05924,3.9228 1.81031,4.28244 0.97624,0.46746 4.31629,0.91924 6.93641,0.93821 2.91562,0.0211 4.13471,0.25457 9.55002,1.8288 2.37537,0.69053 4.69611,1.49663 6.18676,2.14898 1.51692,0.66386 7.13733,3.47346 8.11154,4.05493 4.94956,2.95414 10.41961,7.10748 13.78299,10.46525 2.57448,2.57018 3.50349,3.07412 4.63982,2.51678 0.37808,-0.18537 1.30609,-0.42607 2.06225,-0.5347 0.75615,-0.10855 2.04552,-0.3709 2.86525,-0.5828 1.36249,-0.35219 1.70295,-0.33536 3.96671,0.19611 2.56335,0.6018 2.81829,0.76519 5.86382,3.75831 0.7824,0.76893 2.60364,3.21839 3.13821,4.2207 1.65386,3.10096 3.27624,6.44854 3.27624,6.76014 0,0.2065 0.23253,0.83303 0.51674,1.39231 0.76644,1.50823 1.47438,3.70303 2.634,8.16601 0.23578,0.9074 0.60997,2.20662 0.83155,2.88717 0.2216,0.68054 0.53509,2.09048 0.69664,3.1332 0.16157,1.04271 0.40695,2.10738 0.54532,2.36592 0.13835,0.25852 0.33135,1.32329 0.42886,2.36614 0.0975,1.04285 0.35462,2.51476 0.57138,3.2709 0.21676,0.75616 0.51473,2.6122 0.66216,4.12451 0.14745,1.51232 0.45095,3.43024 0.67448,4.262 0.22351,0.83178 0.40786,2.2212 0.40966,3.0876 0.004,1.62062 0.74062,4.4595 1.66178,6.39877 0.28735,0.60492 0.65248,1.40921 0.8114,1.78729 0.15887,0.37808 0.61098,1.24422 1.00458,1.92476 0.3936,0.68056 0.85767,1.48484 1.03128,1.7873 0.62011,1.08033 1.40548,2.22123 2.49727,3.6278 0.60968,0.78542 1.54156,2.01867 2.07087,2.74056 0.5293,0.72187 1.23471,1.62596 1.56753,2.00903 0.33284,0.38309 1.13712,1.3152 1.7873,2.07136 0.65016,0.75616 1.7635,1.9739 2.47407,2.70608 l 1.29196,1.33122 1.5952,-0.12655 c 0.87737,-0.0697 2.15203,-0.31343 2.83257,-0.54176 1.72225,-0.57781 5.37276,-1.5164 7.50793,-1.93037 0.82699,-0.16041 0.32828,3.29977 -1.08065,7.49787 -0.22839,0.68056 -0.53486,1.71743 -0.68101,2.30418 -0.14609,0.58675 -0.4471,1.32575 -0.66879,1.64224 -0.22168,0.31648 -0.40304,0.76628 -0.40304,0.99952 0,0.23325 -0.23097,0.85533 -0.51328,1.3824 -0.2823,0.52706 -0.59958,1.35189 -0.70508,1.83295 -0.10545,0.48106 -0.36949,1.02209 -0.58661,1.20228 -0.21713,0.18014 -0.39476,0.4803 -0.39476,0.66689 0,0.18654 -0.94349,2.18212 -2.09665,4.43454 -2.84573,5.55846 -3.01752,5.87354 -4.40681,8.08234 -0.33292,0.5293 -0.90448,1.53231 -1.2701,2.22889 -0.36563,0.69656 -1.11713,1.8589 -1.67,2.58297 -0.55287,0.72408 -1.00521,1.46513 -1.00521,1.64679 0,0.18169 -0.24747,0.55426 -0.54993,0.82798 -0.30246,0.27373 -0.54994,0.59786 -0.54994,0.72029 0,0.12248 -0.3745,0.75287 -0.83223,1.40096 -0.45772,0.64809 -1.37805,1.98264 -2.04518,2.96564 -2.32262,3.42239 -3.31883,4.83026 -4.82167,6.8141 -1.85901,2.45403 -5.92337,7.69888 -6.54543,8.44659 -0.25163,0.30246 -1.5008,1.84916 -2.77593,3.4371 -4.75447,5.92081 -12.55835,14.7483 -19.64883,22.22611 -2.7988,2.95163 -3.47603,3.82017 -3.47603,4.45805 0,0.43572 -0.24747,1.42003 -0.54995,2.1874 -0.30246,0.76736 -0.54812,1.73089 -0.54594,2.14117 0.002,0.4103 -0.23874,1.55027 -0.53541,2.53327 -0.70481,2.33542 -1.34916,4.93415 -1.76795,7.13032 -0.38207,2.00344 -0.79736,2.37122 -1.2409,1.0989 -0.47617,-1.36591 -4.8216,-5.61895 -7.30943,-7.154 -1.20355,-0.7426 -2.33237,-1.35019 -2.50851,-1.35019 -0.17609,0 -0.87867,-0.24702 -1.56118,-0.54892 -1.12983,-0.49977 -1.2567,-0.65416 -1.41719,-1.7243 -0.11127,-0.74209 -0.56005,-1.6801 -1.21731,-2.54446 -0.57259,-0.75299 -1.84557,-2.42083 -2.82884,-3.7063 -0.98329,-1.28546 -2.58403,-3.39252 -3.55724,-4.68232 -0.97321,-1.28979 -1.9243,-2.52715 -2.11356,-2.74967 -0.57706,-0.67845 -4.08249,-5.24734 -10.17619,-13.26342 -3.83353,-5.04288 -9.26083,-12.11891 -11.33961,-14.78441 -0.83177,-1.06655 -1.75978,-2.29338 -2.06226,-2.72628 -0.30246,-0.4329 -1.67203,-2.25273 -3.04349,-4.04404 -5.2999,-6.92248 -6.34728,-8.28954 -8.28876,-10.81856 -1.10293,-1.4367 -3.75772,-4.93222 -5.89953,-7.76783 -2.26585,-2.99981 -4.08213,-5.15563 -4.34365,-5.15563 -0.87679,0 -1.10937,0.61771 -1.10937,2.94632 0,2.51719 -0.10004,2.27636 3.13576,7.54923 0.80467,1.31122 1.54392,2.54857 1.6428,2.74968 0.0989,0.20112 0.54433,0.92247 0.98994,1.60301 0.4456,0.68054 1.00005,1.60855 1.23212,2.06225 0.23206,0.4537 0.9687,1.69105 1.63693,2.74967 0.66825,1.05864 1.92707,3.16212 2.79739,4.67446 0.8703,1.5123 1.66389,2.81153 1.76348,2.88715 0.0996,0.0757 0.88857,1.37484 1.75321,2.88716 0.86465,1.51232 2.24686,3.85071 3.07158,5.1964 0.8247,1.34572 1.49947,2.51146 1.49947,2.59054 0,0.0792 0.19706,0.36154 0.43789,0.62766 0.24083,0.26612 0.64298,0.85585 0.89364,1.31052 0.25066,0.45466 0.95071,1.64426 1.55563,2.64358 1.13193,1.86992 1.8938,3.14095 2.88715,4.81675 0.93503,1.5774 1.72401,2.895 2.88716,4.82158 1.86673,3.09197 2.16689,3.59289 3.23216,5.39395 0.56783,0.96005 1.33459,2.2405 1.70391,2.84542 0.36931,0.60492 1.12808,1.8927 1.68618,2.86173 0.55809,0.96901 1.29395,2.17333 1.63523,2.67624 0.34129,0.50292 1.44329,2.556 2.44889,4.56238 1.0056,2.00642 1.93353,3.83362 2.06209,4.06046 0.12849,0.22686 0.3698,0.7218 0.53608,1.09988 0.16621,0.37807 0.4156,0.87301 0.55403,1.09987 0.13835,0.22684 0.6369,1.43366 1.10771,2.68181 0.51598,1.36785 1.56431,3.27944 2.63891,4.81194 0.98058,1.39839 2.58446,3.71803 3.56417,5.15473 0.97975,1.43671 2.4704,3.60208 3.31255,4.81194 0.84219,1.20985 2.24673,3.25149 3.12123,4.53695 0.87451,1.28548 2.23543,3.26524 3.02427,4.39948 0.78887,1.13424 1.98446,2.86655 2.65688,3.84954 0.67243,0.98302 2.4655,3.58146 3.98461,5.77432 1.51909,2.19287 3.57284,5.18804 4.56389,6.65595 0.99107,1.46791 2.32326,3.06915 2.96045,3.55831 1.51037,1.15947 4.01344,4.86765 4.01344,5.94568 0,0.19659 0.17338,0.63149 0.38513,0.96645 0.2118,0.33495 0.52187,1.26811 0.68903,2.07371 0.16719,0.80557 0.43015,1.70049 0.58439,1.98871 0.15422,0.28824 0.40395,1.50891 0.55488,2.71262 0.15093,1.20372 0.45709,2.70625 0.68031,3.33894 0.22324,0.63274 0.41008,1.9082 0.41523,2.83437 0.006,0.92621 0.21109,3.10695 0.45767,4.84611 0.45106,3.18161 0.75948,19.93962 0.57185,31.07127 l -0.0764,4.53695 -0.66179,-1.09985 z m -5.99564,-128.14909 c 1.37991,-1.14519 5.85767,-6.09368 7.56999,-8.36578 0.85216,-1.13072 1.73786,-2.26246 1.96821,-2.51498 0.23036,-0.2525 0.91378,-1.15272 1.5187,-2.00048 0.60494,-0.84776 1.84229,-2.52264 2.74967,-3.72195 0.9074,-1.19933 1.93471,-2.59108 2.28294,-3.09279 1.09252,-1.57414 5.47384,-7.72963 6.42284,-9.02376 0.49908,-0.68054 1.78583,-2.53657 2.85947,-4.12451 2.63429,-3.89616 4.79599,-7.04975 5.77363,-8.42276 0.44494,-0.62489 0.96245,-1.3673 1.15001,-1.64982 0.18751,-0.28251 1.36308,-2.03944 2.6122,-3.90426 3.08425,-4.6045 3.49873,-5.31393 3.50397,-5.99761 0.006,-0.86508 -0.56032,-0.94633 -2.46561,-0.35333 -0.93685,0.29157 -2.34195,0.5289 -3.12246,0.52737 -1.21268,-0.002 -3.231,0.50066 -5.58506,1.392 -0.41578,0.15751 -0.64711,0.5536 -0.77896,1.33403 -0.10313,0.61055 -0.42475,1.41166 -0.71467,1.78024 -0.28994,0.36857 -0.52715,0.7447 -0.52715,0.83582 0,0.31045 -3.70187,5.48702 -6.31999,8.83761 -0.83412,1.06748 -1.82592,2.35536 -2.204,2.86196 -0.37808,0.50658 -0.8697,1.10587 -1.0925,1.33173 -0.71613,0.72595 -3.03201,3.69058 -3.03201,3.88139 0,0.10159 -0.46723,0.67346 -1.03826,1.27105 -0.57104,0.59758 -2.13044,2.4476 -3.4653,4.11116 -1.33488,1.66356 -2.57009,3.14838 -2.74493,3.2996 -0.17473,0.15132 -1.17894,1.32671 -2.23133,2.61219 -1.05243,1.28548 -3.34045,3.99731 -5.08452,6.02631 -1.74408,2.029 -3.79939,4.44183 -4.56738,5.36187 -0.768,0.92003 -1.6032,1.8426 -1.85603,2.05015 -0.89927,0.73824 -0.26575,2.5147 1.53196,4.2957 0.60834,0.60265 2.5573,1.73364 3.64517,2.11528 0.94266,0.33069 2.32123,0.01 3.2414,-0.75343 z m -12.60819,-8.36535 c 0.38793,-0.14745 0.70532,-0.39422 0.70532,-0.54829 0,-0.15402 0.95895,-1.53205 2.131,-3.06215 1.17205,-1.53012 2.45921,-3.24986 2.86038,-3.82165 0.40116,-0.57181 1.45291,-1.966 2.33723,-3.0982 2.0909,-2.67706 4.90323,-6.3475 7.10594,-9.27417 1.65715,-2.20178 2.67537,-3.54492 6.81365,-8.98786 0.94136,-1.23815 2.51585,-3.32273 3.49887,-4.63238 0.983,-1.30966 2.81984,-3.68892 4.08187,-5.28723 2.59826,-3.29064 2.70861,-3.49049 2.23947,-4.0558 -0.27574,-0.33224 -1.19701,-0.40824 -4.91144,-0.40528 l -4.57204,0.004 -4.12451,5.13816 c -2.26848,2.82597 -4.46758,5.61119 -4.88692,6.18935 -0.41933,0.57816 -0.98052,1.2693 -1.24711,1.53588 -0.26658,0.26659 -0.84886,0.97526 -1.29393,1.57482 -0.44507,0.59956 -2.73094,3.50293 -5.07971,6.45195 -2.34878,2.94904 -4.6325,5.85682 -5.07496,6.46174 -0.44246,0.60492 -1.1016,1.40584 -1.46474,1.77978 -0.36314,0.37396 -1.50185,1.79692 -2.53044,3.16214 -1.02858,1.36522 -2.10253,2.72966 -2.38655,3.03214 -1.09563,1.16685 -1.74508,2.15743 -1.74508,2.66177 0,0.51926 0.67551,1.28567 1.95414,2.21706 0.36192,0.26367 1.34515,1.01857 2.18492,1.67757 2.05645,1.61379 2.30146,1.7064 3.40464,1.28697 z m -11.25497,-8.19129 c 0.1517,-0.11106 0.72245,-0.88255 1.26843,-1.71433 0.54598,-0.83178 1.51126,-2.06913 2.14505,-2.74969 0.63379,-0.68054 1.85235,-2.16536 2.70793,-3.2996 0.85556,-1.13424 1.69891,-2.18599 1.87409,-2.33721 0.29334,-0.25326 7.4768,-9.11374 15.32061,-18.89731 1.78435,-2.22562 3.35295,-4.11375 3.48577,-4.19584 0.13274,-0.082 0.39066,-0.6012 0.57296,-1.15361 0.29218,-0.8853 0.27204,-1.0478 -0.1699,-1.371 -0.28769,-0.21037 -1.21394,-0.36666 -2.17296,-0.36666 -0.91934,0 -2.56454,-0.24747 -3.65601,-0.54993 -3.4557,-0.95761 -5.78921,-0.55511 -6.68955,1.1539 -0.18344,0.34835 -0.41889,0.69524 -0.52303,0.77086 -0.1041,0.0757 -0.63992,0.79734 -1.19061,1.60379 -0.55068,0.80649 -1.59695,2.22943 -2.32503,3.16214 -0.72811,0.93269 -1.50396,1.96275 -1.72415,2.28901 -0.22018,0.32626 -1.51394,2.05855 -2.87502,3.84952 -1.3611,1.79098 -2.84592,3.82229 -3.2996,4.51403 -0.4537,0.69174 -1.01052,1.4551 -1.23738,1.69636 -0.22684,0.24125 -1.46419,1.8785 -2.74965,3.6383 -1.28548,1.75981 -3.11057,4.2023 -4.05578,5.42775 -0.94519,1.22546 -1.71855,2.50786 -1.71855,2.8498 0,0.39824 0.55596,1.14846 1.54684,2.0873 0.85076,0.8061 2.09287,1.9915 2.76024,2.63423 1.14745,1.10514 2.06245,1.42919 2.70538,0.95819 z m -10.68325,-8.93223 c 0.4601,-0.49151 1.19565,-1.38857 1.63457,-1.99351 0.43892,-0.60494 3.5528,-4.56446 6.91972,-8.79895 3.36693,-4.2345 6.85775,-8.6271 7.75737,-9.76134 0.89962,-1.13424 2.44484,-3.07698 3.43383,-4.31718 0.989,-1.24022 1.79818,-2.44375 1.79818,-2.67452 0,-0.55804 -1.9432,-1.51439 -3.98703,-1.96225 -0.90738,-0.19884 -2.25108,-0.57376 -2.98597,-0.83317 -0.93221,-0.32906 -1.52962,-0.39648 -1.97599,-0.22295 -0.3519,0.13681 -2.02976,1.98102 -3.72859,4.09827 -11.07557,13.80342 -14.42651,17.95385 -14.99317,18.57024 -0.35262,0.38356 -0.71828,1.08317 -0.81259,1.55473 -0.15751,0.78767 0.0569,1.11658 2.63673,4.04582 1.54452,1.75365 2.95629,3.18845 3.13729,3.18845 0.18093,0 0.70554,-0.40213 1.16565,-0.89364 z m 58.10366,-46.38081 c 0.29751,-0.55591 0.15306,-1.25094 -0.40424,-1.9447 -0.18227,-0.22684 -0.46467,-0.90738 -0.62765,-1.51232 -0.16293,-0.60492 -0.60183,-1.90413 -0.97519,-2.88715 -0.37335,-0.983 -0.82963,-2.22036 -1.01394,-2.74968 -1.25138,-3.59389 -2.42474,-4.94615 -4.29366,-4.94837 -0.47499,-5.4e-4 -1.403,-0.24579 -2.06225,-0.54494 -0.65925,-0.29913 -1.63355,-0.5466 -2.16509,-0.54992 -0.53157,-0.004 -1.42821,-0.25351 -1.99253,-0.55599 -0.56432,-0.30246 -1.36677,-0.55536 -1.78322,-0.562 -0.41643,-0.006 -1.25208,-0.20519 -1.85702,-0.44124 -0.60492,-0.23605 -1.90415,-0.59306 -2.88715,-0.79335 -0.98302,-0.20027 -2.28224,-0.5531 -2.88716,-0.78402 -0.60492,-0.23094 -1.4092,-0.42607 -1.78728,-0.43365 -0.37808,-0.008 -1.05864,-0.20775 -1.51232,-0.44484 -0.4537,-0.2371 -1.42261,-0.50221 -2.15313,-0.58915 -0.73052,-0.0869 -1.7775,-0.38714 -2.32661,-0.66709 -0.54913,-0.27998 -1.33881,-0.50902 -1.75485,-0.50902 -0.41607,0 -1.41071,-0.23528 -2.21035,-0.52282 -0.79964,-0.28756 -1.98847,-0.59975 -2.64186,-0.69378 -0.65339,-0.094 -1.45767,-0.34634 -1.78728,-0.56076 -0.34147,-0.2221 -1.48662,-0.4264 -2.66157,-0.47485 l -2.06227,-0.0849 -0.0886,0.77279 c -0.0488,0.42504 0.0594,0.95122 0.24044,1.1693 0.18092,0.21805 0.4899,1.10765 0.68648,1.97687 0.19658,0.86922 0.54693,2.07535 0.77861,2.68027 0.23165,0.60492 0.43082,1.4092 0.44259,1.78728 0.0116,0.37808 0.26047,1.18236 0.55267,1.78728 0.29221,0.60494 0.53548,1.43595 0.5406,1.84671 0.01,0.81264 0.71433,2.54224 1.34717,3.30894 0.21846,0.26465 0.68278,0.48118 1.03182,0.48118 0.34905,0 1.26247,0.24749 2.02982,0.54995 0.76736,0.30246 1.88097,0.54992 2.47471,0.54992 0.59373,0 1.70734,0.24747 2.47471,0.54993 0.76736,0.30248 1.99578,0.54995 2.72982,0.54995 0.7424,0 1.86652,0.24135 2.53326,0.54389 0.65926,0.29915 1.72842,0.54662 2.37593,0.54994 0.64751,0.004 1.88486,0.23969 2.74967,0.52526 0.86481,0.28557 2.31467,0.60765 3.22192,0.71576 0.90724,0.10816 1.97395,0.3643 2.37047,0.56935 0.39652,0.20505 1.57213,0.45711 2.61246,0.56013 1.04035,0.10294 2.48386,0.41743 3.20781,0.69871 0.72394,0.28127 1.83757,0.51149 2.47471,0.51163 0.63713,1.1e-4 1.7771,0.2418 2.53326,0.53706 1.87051,0.7304 4.14407,0.74675 4.52629,0.0325 z m -125.90994,-2.76905 c 1.30353,-0.36213 2.66395,-1.73925 3.01836,-3.0554 0.82281,-3.0557 -2.14661,-6.02511 -5.2023,-5.20231 -2.19367,0.5907 -3.70918,3.15699 -3.08826,5.22948 0.47262,1.57751 2.39801,3.14708 4.02043,3.27748 0.15112,0.0116 0.71453,-0.10004 1.25177,-0.24925 z m 20.89134,-1.44413 c 1.78541,-0.90194 2.5455,-2.169 2.39865,-3.99842 -0.14474,-1.80387 -0.79701,-2.74337 -2.49574,-3.59514 -1.10129,-0.55221 -1.45741,-0.6101 -2.35372,-0.38258 -1.05103,0.26677 -1.06622,0.25867 -3.16318,-1.68657 l -2.10708,-1.95466 -0.0619,-6.59533 -0.0619,-6.59532 -3.91495,-3.30351 -3.91495,-3.30347 -0.004,-6.20949 -0.004,-6.20949 1.08375,-0.87093 1.08374,-0.87092 5.02688,0 5.02687,0 1.66569,-1.65087 1.66571,-1.6509 1.08077,0.55103 c 1.95027,0.9943 3.89818,0.52967 5.25899,-1.25444 2.08697,-2.73617 0.0304,-6.71854 -3.4696,-6.71854 -2.19127,0 -4.03927,1.71434 -4.16079,3.85985 -0.0414,0.73119 -0.3762,1.287 -1.44301,2.39566 l -1.38907,1.44357 -5.09629,7.5e-4 -5.09629,7.6e-4 -2.131,1.94609 -2.13099,1.94607 0,7.12024 0,7.12022 0.89364,0.79627 c 2.17749,1.94018 5.89049,5.11163 6.58995,5.62876 l 0.76543,0.56591 0,6.6268 0,6.62681 2.43119,2.14032 2.43121,2.14033 -0.27287,1.02233 c -0.5681,2.12833 0.37311,4.09487 2.40052,5.01568 1.46133,0.66371 1.99003,0.64888 3.46696,-0.0973 z M 275.79213,238.6865 c 1.85103,-1.37077 2.44436,-3.51125 1.51575,-5.46815 -0.93724,-1.9751 -3.64252,-2.86926 -5.7111,-1.88765 -1.18391,0.56178 -2.36654,2.38334 -2.36654,3.64505 0,1.7403 1.03391,3.35864 2.61219,4.08877 1.07058,0.49527 3.02274,0.30842 3.9497,-0.37802 z m 12.08079,-3.2097 c 2.99517,-1.55837 3.19173,-5.72377 0.34906,-7.39704 l -0.8439,-0.49673 0,-10.60392 0,-10.6039 2.62239,-3.12892 2.62241,-3.12891 3.39239,0 3.3924,0 5.45467,-6.32424 5.45465,-6.32426 4.15197,0 4.15197,0 0.62204,0.84134 c 2.56717,3.47228 7.86245,1.85615 7.7984,-2.38009 -0.0623,-4.12089 -5.72752,-5.79958 -7.72465,-2.28893 l -0.45488,0.79958 -4.82141,0.001 -4.8214,0.002 -1.32781,1.58105 c -0.73031,0.86959 -3.18693,3.71551 -5.45918,6.32426 l -4.13132,4.74319 -3.36758,0 -3.36758,0 -3.46858,4.13004 -3.46857,4.13022 0,11.10348 0,11.10348 -0.97776,0.5769 c -1.96371,1.15862 -2.55046,4.18782 -1.15482,5.96206 1.29771,1.64976 3.68097,2.26055 5.37709,1.37805 z m 12.14819,-20.71783 c 0.52628,-0.26442 1.23422,-0.89593 1.57315,-1.40334 l 0.61626,-0.92259 3.68159,0.0418 3.68161,0.0418 9.73096,-10.39159 c 5.35202,-5.71537 10.65897,-11.37887 11.79321,-12.58553 1.13424,-1.20667 2.99027,-3.19587 4.12451,-4.42047 l 2.06224,-2.22653 1.84265,-0.12597 c 1.47414,-0.10081 1.98802,-0.26177 2.56958,-0.80513 2.03781,-1.90397 2.03411,-4.68216 -0.01,-6.59098 -0.63952,-0.59755 -0.98705,-0.68741 -2.65806,-0.68741 -1.90452,0 -1.93236,0.0116 -3.00248,1.15796 -1.1931,1.27906 -1.37987,2.09845 -0.97444,4.275 0.18053,0.96899 0.32852,0.76479 -3.65298,5.03901 -0.99803,1.07139 -6.51653,6.97926 -12.26335,13.12857 l -10.44875,11.18061 -3.2996,-5.5e-4 -3.29962,-5.6e-4 -0.4651,-0.81742 c -1.33325,-2.34317 -5.07694,-2.57188 -6.77443,-0.41388 -2.86239,3.63895 1.06217,8.59222 5.17179,6.52748 z"
       id="path3347"
       inkscape:connector-curvature="0" />
    <flowRoot
       xml:space="preserve"
       id="flowRoot3381"
       style="font-style:normal;font-weight:normal;font-size:40px;line-height:125%;font-family:Sans;letter-spacing:0px;word-spacing:0px;fill:#000000;fill-opacity:1;stroke:none;stroke-width:1px;stroke-linecap:butt;stroke-linejoin:miter;stroke-opacity:1"><flowRegion
         id="flowRegion3383"><rect
           id="rect3385"
           width="48.487324"
           height="313.14728"
           x="78.791901"
           y="98.778206" /></flowRegion><flowPara
         id="flowPara3387" /></flowRoot>  </g>
</svg>
