<?xml version="1.0" encoding="utf-8"?>
<!-- Generator: Adobe Illustrator 18.1.0, SVG Export Plug-In . SVG Version: 6.00 Build 0)  -->
<svg version="1.1" id="Layer_1" xmlns="http://www.w3.org/2000/svg" xmlns:xlink="http://www.w3.org/1999/xlink" x="0px" y="0px"
	 viewBox="0 0 174.5 55.1" enable-background="new 0 0 174.5 55.1" xml:space="preserve">
<path fill="#C1272D" d="M44.9,49.6l-5.1-12c-0.9-2-2.1-3.5-3.5-4.5c4.6-1.5,7.6-4.7,8.6-8.6c-2.6,0-5.5-1.7-5.5-4.9
	c0-2,0.6-3.5,2.4-4.8c-0.6-1.6-2.4-3.1-4.1-3.7c-1.1-0.4-2.3-0.7-3.5-0.9l0.1,1.7c-0.9,0.3-3.4,0.5-4.2,0.5c-0.8,0-2.5-0.3-3.3-0.4
	c-0.2-1-0.3-2.3-0.5-2.3H22h-5.3v8.8l3.6-0.8c0.8-0.1,1.7-2.8,2.4-3.7c1.1-0.2,2.7-0.3,4.8-0.3s3.8,0.7,5.2,2.1c1.3,1.4,2,3.3,2,5.8
	c0,5-2,7.7-5.9,8.4c-0.6,0.2-5.1,0.5-5.7-0.1c-0.7,0-2-3.9-2.2-4.2c-0.3-0.4-4.1-0.6-4.1-0.6v14.6c0,1,1.5,1.5,3.8,2l-1.1,4.5
	l-8.8,0v3.7c0,1-1.3,1.7-2.9,2l0.7,2.8h18.6l0.5-2.6c-2.4-0.5-5-1.2-5-2.2V35.3c0,0,2.7-0.1,3.5-0.1c1.8,0.3,3,0.6,3.6,2l6.5,17.4
	h12.3l0.5-2.8C46.7,51.4,45.3,50.6,44.9,49.6z"/>
<g>
	<g>
		<path fill="#FFFFFF" d="M32.4,0H0.2L0,2.5c1.7,0.4,3,1,4.1,2v36.1c-0.8,0.9-2.1,1.4-3.8,1.7L0,45h18.6l0.5-2.6c-2.3-0.5-4-1.2-5.1-2.2V23.5
			l6.2,0.5c0.8,0.1,1.4,0.5,2,1.2c0.6,0.7,1.2,2,1.8,3.8h3.5v-14h-3.5c-0.3,1.3-0.8,2.4-1.5,3.2s-1.5,1.3-2.3,1.3L14,20.1v-16h11
			c1.3,1.7,2.2,4.1,2.9,7.2c0.8,0.1,1.6,0.2,2.4,0.2s1.7-0.1,2.6-0.4L32.4,0z"/>
	</g>
</g>
<g>
	<path fill="#C1272D" d="M53.7,52.8c-1.6-1.5-2.3-3.7-2.3-6.6s0.8-5.1,2.3-6.6c1.6-1.5,3.9-2.3,7-2.3s5.4,0.8,7,2.3
		c1.6,1.5,2.3,3.7,2.3,6.6s-0.8,5.1-2.3,6.6c-1.6,1.5-3.9,2.3-7,2.3S55.3,54.3,53.7,52.8z M56.6,40.7c-0.8,1.1-1.3,2.9-1.3,5.5
		c0,2.6,0.4,4.4,1.3,5.5c0.8,1.1,2.2,1.7,4.1,1.7c1.9,0,3.3-0.6,4.1-1.7c0.9-1.1,1.3-3,1.3-5.5c0-2.5-0.4-4.4-1.3-5.5
		C64,39.6,62.6,39,60.7,39C58.8,39,57.4,39.6,56.6,40.7z"/>
	<path fill="#C1272D" d="M82.6,37.3c3,0,5.2,0.8,6.5,2.4c1.4,1.6,2.1,3.7,2.1,6.4s-0.8,4.9-2.5,6.5c-1.6,1.7-4,2.5-7,2.5
		c-1.8,0-3.5-0.6-5.1-1.8c-0.4,0.6-0.7,1.1-0.9,1.5h-2.1V34c0-0.9-0.2-1.5-0.7-1.9c-0.4-0.3-1.2-0.5-2.4-0.6l0.1-1.1
		c1.1-0.1,3-0.6,5.8-1.3l0.9,0.4v10.3c0.4-0.7,1.1-1.3,2.1-1.8C80.6,37.6,81.6,37.3,82.6,37.3z M86.4,51.1c0.3-0.8,0.6-1.6,0.7-2.3
		c0.1-0.8,0.2-1.6,0.2-2.5c0-0.9,0-1.7-0.1-2.3c0-0.6-0.2-1.3-0.3-1.9c-0.2-0.7-0.4-1.2-0.7-1.6c-0.7-1-1.8-1.4-3.1-1.4
		c-1.3,0-2.4,0.2-3.1,0.7c-0.7,0.5-1.3,1.1-1.6,2c-0.6,1.5-0.9,3.4-0.9,5.7v4.4c1.7,1.2,3.1,1.8,4.3,1.8c1.2,0,2.2-0.2,3-0.6
		C85.5,52.5,86.1,51.9,86.4,51.1z"/>
	<path fill="#C1272D" d="M96.2,52.8c-1.6-1.5-2.3-3.7-2.3-6.6s0.8-5.1,2.3-6.6c1.6-1.5,3.9-2.3,7-2.3s5.4,0.8,7,2.3
		c1.6,1.5,2.3,3.7,2.3,6.6s-0.8,5.1-2.3,6.6c-1.6,1.5-3.9,2.3-7,2.3S97.7,54.3,96.2,52.8z M99,40.7c-0.8,1.1-1.3,2.9-1.3,5.5
		c0,2.6,0.4,4.4,1.3,5.5c0.8,1.1,2.2,1.7,4.1,1.7c1.9,0,3.3-0.6,4.1-1.7c0.9-1.1,1.3-3,1.3-5.5c0-2.5-0.4-4.4-1.3-5.5
		c-0.8-1.1-2.2-1.7-4.1-1.7C101.2,39,99.9,39.6,99,40.7z"/>
	<path fill="#C1272D" d="M127,53.8c-1.5,0.9-3.2,1.4-5.1,1.4c-1.9,0-3.2-0.3-3.9-1c-0.7-0.7-1.1-1.9-1.1-3.5v-11h-3.6v-1.1
		c2.8-0.8,4.7-2.3,5.6-4.5h1.8v3.6h5.6v2h-5.7v11.3c0,0.9,0.1,1.6,0.4,2c0.3,0.4,0.9,0.6,1.9,0.6s2-0.2,3.1-0.7L127,53.8z"/>
	<path fill="#C1272D" d="M131.8,42c0-0.9-0.2-1.5-0.7-1.9c-0.5-0.3-1.2-0.5-2.4-0.6l0.1-1.1c1.1-0.2,3-0.6,5.8-1.3l0.9,0.4v15
		c0.7,0.4,1.8,0.8,3.1,1l-0.2,1.2h-9.7l0.2-1.3c1.2-0.2,2.2-0.5,2.9-0.9V42z M133.4,30.7c1.5,0,2.3,0.7,2.3,2.1
		c0,1.4-0.8,2.1-2.3,2.1s-2.3-0.7-2.3-2.1C131.1,31.4,131.9,30.7,133.4,30.7z"/>
	<path fill="#C1272D" d="M149.7,37.3c2,0,3.6,0.4,4.9,1.1c1.2,0.7,1.9,1.7,1.9,2.8c0,0.6-0.2,1.1-0.7,1.5c-0.5,0.4-1,0.7-1.6,0.7
		s-1.1-0.1-1.5-0.4c-0.4-0.2-0.7-0.6-0.8-1c0.4-0.5,0.6-1,0.6-1.5s-0.2-0.9-0.7-1.3c-0.5-0.4-1.2-0.6-2.2-0.6c-1,0-1.8,0.2-2.5,0.6
		c-0.7,0.4-1.3,1-1.7,1.7c-0.6,1.3-0.9,2.7-0.9,4.4c0,1.7,0.1,2.9,0.2,3.6c0.1,0.8,0.4,1.5,0.7,2.2c0.7,1.4,2.2,2.1,4.5,2.1
		c1,0,1.9-0.1,2.9-0.4c0.9-0.3,1.6-0.6,2.1-0.9l0.7-0.4l1.1,1.1c-0.2,0.2-0.5,0.4-0.9,0.7c-0.4,0.3-1.2,0.6-2.4,1.1
		c-1.2,0.5-2.4,0.7-3.7,0.7c-3.3,0-5.7-0.8-7.1-2.3c-1.4-1.5-2.2-3.8-2.2-6.7C140.4,40.3,143.5,37.3,149.7,37.3z"/>
	<path fill="#C1272D" d="M170,39.8c-0.6-0.6-1.5-1-2.7-1c-1.3,0-2.2,0.2-2.9,0.7c-0.7,0.4-1,1-1,1.8c0,0.8,0.4,1.4,1.1,1.9
		c0.8,0.5,1.7,0.9,2.8,1.2c1.1,0.3,2.2,0.6,3.2,1c1.1,0.4,2,0.9,2.8,1.7c0.8,0.7,1.1,1.7,1.1,2.8c0,1.6-0.7,2.9-2.1,3.8
		c-1.4,0.9-3.3,1.4-5.8,1.4c-1,0-2.2-0.1-3.5-0.4c-1.3-0.3-2.3-0.6-3-1v-4.5l2.3-0.3c0.2,1.8,0.6,3.2,1.2,4.2c0.9,0.2,2,0.4,3.3,0.4
		c1.3,0,2.3-0.3,3-0.8c0.8-0.5,1.1-1.2,1.1-2c0-0.8-0.4-1.4-1.1-1.9c-0.7-0.5-1.7-0.8-2.7-1.1c-1.1-0.3-2.1-0.6-3.2-1
		c-1.1-0.4-2-0.9-2.7-1.7c-0.7-0.8-1.1-1.8-1.1-3.1c0-1.3,0.7-2.4,2-3.2c1.3-0.8,3.2-1.2,5.6-1.2c2.4,0,4.5,0.3,6,1l-0.4,4.4H171
		C170.9,41.4,170.6,40.5,170,39.8z"/>
</g>
<text transform="matrix(1.1884 0 0 1 38.793 23.2311)" font-family="'Caladea-Regular'" fill="#FFFFFF" font-size="35.3418">airview</text>
</svg>
